<?xml version="1.0" encoding="UTF-8"?>
<!DOCTYPE svg PUBLIC "-//W3C//DTD SVG 1.1//EN" "http://www.w3.org/Graphics/SVG/1.1/DTD/svg11.dtd">
<!-- Creator: CorelDRAW X8 -->
<svg xmlns="http://www.w3.org/2000/svg" xml:space="preserve" width="55.454mm" height="21.41mm" version="1.1" style="shape-rendering:geometricPrecision; text-rendering:geometricPrecision; image-rendering:optimizeQuality; fill-rule:evenodd; clip-rule:evenodd"
viewBox="0 0 5545 2141"
 xmlns:xlink="http://www.w3.org/1999/xlink">
 <defs>
  <style type="text/css">
   <![CDATA[
    .fil4 {fill:#0086C8}
    .fil5 {fill:#00ACC4}
    .fil3 {fill:#00CDA7}
    .fil2 {fill:#015CAB}
    .fil1 {fill:#88E782}
    .fil0 {fill:#015CAB;fill-rule:nonzero}
   ]]>
  </style>
 </defs>
 <g id="Capa_x0020_1">
  <metadata id="CorelCorpID_0Corel-Layer"/>
  <path class="fil0" d="M2523 877c41,14 81,28 120,43 40,15 75,33 106,53 31,20 56,45 75,73 19,29 29,63 29,104 0,47 -10,88 -28,123 -19,36 -43,65 -74,89 -30,23 -64,41 -102,53 -38,12 -76,18 -114,18 -36,0 -71,-4 -105,-13 -35,-9 -67,-22 -96,-38 -29,-17 -55,-36 -78,-60 -23,-23 -41,-49 -54,-77 -21,-27 -42,-35 -64,-24 -11,5 -19,13 -24,24 -6,11 -5,25 3,41 14,34 35,66 63,96 27,29 59,55 96,77 37,22 77,39 120,52 44,12 89,19 135,19 54,0 106,-9 157,-27 50,-18 95,-43 134,-76 38,-33 69,-73 92,-120 23,-48 35,-100 35,-158 0,-53 -11,-99 -34,-138 -22,-38 -52,-71 -89,-99 -37,-28 -79,-51 -127,-71 -48,-20 -97,-39 -148,-55 -19,-6 -40,-12 -62,-18 -22,-7 -45,-15 -68,-23 -23,-9 -44,-20 -65,-32 -21,-12 -40,-26 -56,-41 -17,-16 -30,-34 -39,-54 -10,-21 -15,-44 -15,-70 1,-38 10,-72 28,-101 18,-28 41,-52 69,-71 27,-19 58,-33 91,-42 34,-9 66,-14 97,-14 58,0 111,10 159,30 49,21 92,57 132,110 11,9 22,13 33,12 11,-1 20,-4 28,-11 6,-5 10,-13 13,-23 3,-9 2,-19 -3,-28 -36,-61 -85,-107 -149,-139 -65,-31 -136,-47 -214,-47 -44,0 -89,7 -134,22 -45,15 -86,36 -123,63 -36,27 -66,61 -89,101 -23,41 -34,87 -34,137 0,51 11,94 35,131 23,36 52,67 88,93 36,26 76,47 120,64 44,17 88,31 130,42zm1347 638c13,1 25,-4 34,-13 9,-10 13,-22 13,-35 0,-14 -4,-25 -13,-34 -9,-9 -21,-14 -34,-14l-542 0 0 -496 404 0c13,0 25,-5 34,-13 9,-9 13,-20 13,-34 0,-13 -4,-25 -13,-34 -9,-10 -21,-14 -34,-13l-404 0 0 -499 542 0c13,0 25,-5 34,-14 9,-9 13,-20 13,-34 0,-14 -4,-25 -13,-34 -9,-9 -21,-14 -34,-14l-587 0c-14,0 -25,4 -36,13 -10,9 -15,20 -15,35l0 1183c0,14 4,25 12,34 9,10 19,15 33,16l593 0zm580 -1281c60,0 118,7 174,22 56,15 108,37 156,64 48,28 92,61 132,100 40,39 74,82 102,129 29,48 50,99 66,154 16,55 24,113 24,173 0,90 -17,174 -51,251 -35,78 -81,146 -140,204 -59,57 -129,103 -208,135 -79,33 -164,49 -254,49l-215 0c-13,0 -24,-4 -34,-13 -9,-9 -14,-20 -14,-34l0 -1187c0,-13 5,-25 14,-34 10,-9 21,-13 34,-13l214 0zm557 642c0,-77 -14,-149 -43,-215 -29,-67 -69,-124 -119,-173 -50,-50 -110,-88 -177,-116 -68,-28 -140,-42 -217,-42l-166 0 0 1089 166 0c77,0 149,-14 217,-41 67,-28 127,-66 177,-115 50,-49 90,-106 119,-172 29,-66 43,-138 43,-215zm466 -595c0,-13 -5,-25 -14,-34 -9,-9 -20,-13 -33,-13 -14,0 -25,4 -35,13 -9,9 -14,21 -14,34l0 1187c0,14 5,25 14,34 10,9 21,13 35,13 13,0 24,-4 33,-13 9,-9 14,-20 14,-34l0 -1187z"/>
  <path class="fil0" d="M4693 2098c-5,-1 -9,-3 -13,-7 -3,-4 -5,-8 -5,-14l0 -359c0,-6 2,-11 6,-15 4,-3 9,-5 15,-5l178 0c5,0 10,2 14,6 3,3 5,8 5,14 0,5 -2,10 -5,13 -4,4 -9,6 -14,6l-159 0 0 141 117 0c6,0 10,2 14,6 4,4 6,9 6,14 0,5 -2,10 -6,14 -4,3 -8,5 -14,5l-117 0 0 141 159 0c5,0 10,2 14,6 3,4 5,8 5,14 0,6 -2,10 -5,14 -4,4 -9,6 -14,6l-181 0zm502 -286c0,14 -3,27 -7,40 -5,12 -11,23 -20,33 -8,9 -18,18 -29,24 -12,7 -24,11 -38,14l91 145c3,5 3,11 1,16 -2,5 -5,9 -10,11 -5,3 -10,3 -14,2 -5,-2 -9,-5 -12,-10l-100 -162 -66 0 0 153c0,6 -2,10 -6,14 -3,4 -8,6 -14,6 -5,0 -10,-2 -13,-6 -4,-4 -6,-8 -6,-14l0 -361c0,-5 2,-10 6,-14 3,-3 8,-5 13,-5l106 0c16,0 31,3 46,9 14,6 27,13 37,24 11,10 19,22 25,36 7,14 10,29 10,45zm-204 -75l0 149 86 0c11,0 22,-2 31,-6 10,-4 18,-10 25,-17 7,-6 12,-14 16,-23 4,-9 6,-19 6,-29 0,-10 -2,-20 -6,-29 -4,-9 -9,-17 -16,-24 -7,-6 -16,-12 -25,-16 -10,-3 -21,-5 -32,-5l-85 0zm309 188l0 153c0,6 -2,10 -6,14 -4,4 -8,6 -14,6 -5,0 -10,-2 -14,-6 -3,-4 -5,-8 -5,-14l0 -361c0,-5 2,-10 5,-14 4,-3 9,-5 14,-5l105 0c17,0 32,3 47,9 14,6 27,14 37,24 11,10 19,22 25,36 6,14 10,29 10,45 0,16 -4,31 -10,45 -6,14 -14,26 -25,36 -10,10 -23,18 -37,24 -15,5 -30,8 -47,8l-85 0zm0 -188l0 149 86 0c11,0 21,-2 31,-6 10,-4 18,-10 25,-17 7,-6 12,-14 16,-23 4,-9 6,-19 6,-29 0,-10 -2,-20 -6,-29 -4,-9 -9,-17 -16,-24 -7,-6 -16,-12 -25,-16 -10,-3 -21,-5 -32,-5l-85 0z"/>
  <polygon class="fil1" points="645,1494 1237,1494 1495,1829 394,1829 "/>
  <polygon class="fil2" points="448,920 645,1494 394,1829 58,766 "/>
  <polygon class="fil3" points="1237,1494 1438,925 1830,765 1495,1829 "/>
  <polygon class="fil4" points="944,478 448,920 58,766 944,57 "/>
  <polygon class="fil5" points="1438,925 944,478 944,57 1830,765 "/>
 </g>
</svg>
